<svg xmlns="http://www.w3.org/2000/svg" viewBox="0 0 22 19.001">
  <path id="Path_13" data-name="Path 13" d="M20.178,1.779A6.084,6.084,0,0,0,15.82,0a6.159,6.159,0,0,0-4.358,1.779l-.578.578-.534-.578A6.085,6.085,0,0,0,5.991,0,6.159,6.159,0,0,0,1.633,1.779a6.284,6.284,0,0,0,.133,8.806l.445.445L9.683,18.5a1.745,1.745,0,0,0,2.446,0L19.6,11.03l.445-.445A6.325,6.325,0,0,0,20.178,1.779ZM19.734,6.4a4.055,4.055,0,0,1-1.245,2.624L18,9.517l-7.116,7.116L3.767,9.517l-.489-.489A4.171,4.171,0,0,1,2.033,6.4,3.828,3.828,0,0,1,3.189,3.38,3.985,3.985,0,0,1,6.214,2.224,4.055,4.055,0,0,1,8.838,3.469l.489.489.845.845,1.156,1.156a1.164,1.164,0,0,0,1.646-1.646l-.445-.445.489-.489a4.053,4.053,0,0,1,2.8-1.156A3.8,3.8,0,0,1,18.577,3.38,3.828,3.828,0,0,1,19.734,6.4Z" transform="translate(0.103 0)" fill="#111"/>
</svg>
